<svg width="20" height="20" viewBox="0 0 20 20" fill="none" xmlns="http://www.w3.org/2000/svg">
<mask id="mask0_8_96" style="mask-type:alpha" maskUnits="userSpaceOnUse" x="0" y="0" width="20" height="20">
<rect width="20" height="20" fill="#D9D9D9"/>
</mask>
<g mask="url(#mask0_8_96)">
<path d="M9.99998 17.9167C8.90595 17.9167 7.8772 17.7089 6.91373 17.2933C5.95026 16.8778 5.1122 16.3138 4.39956 15.6014C3.68692 14.8891 3.12269 14.0514 2.70685 13.0883C2.29116 12.1253 2.08331 11.0963 2.08331 10.0014C2.08331 8.90645 2.29109 7.87721 2.70665 6.91374C3.1222 5.95026 3.68616 5.11221 4.39852 4.39957C5.11088 3.68693 5.94859 3.1227 6.91165 2.70686C7.8747 2.29117 8.90366 2.08332 9.99852 2.08332C11.0935 2.08332 12.1228 2.29117 13.0862 2.70686C14.0497 3.12242 14.8878 3.68645 15.6004 4.39895C16.313 5.11145 16.8773 5.94929 17.2931 6.91249C17.7088 7.87568 17.9166 8.90485 17.9166 9.99999V11.016C17.9166 11.7767 17.6555 12.4226 17.1331 12.9535C16.6107 13.4845 15.9691 13.75 15.2083 13.75C14.7168 13.75 14.2611 13.6298 13.8412 13.3894C13.4214 13.1489 13.0896 12.8183 12.846 12.3973C12.486 12.8269 12.0606 13.1597 11.5698 13.3958C11.0788 13.6319 10.5555 13.75 9.99998 13.75C8.95942 13.75 8.07429 13.3851 7.34456 12.6554C6.61484 11.9257 6.24998 11.0405 6.24998 9.99999C6.24998 8.95943 6.61484 8.07429 7.34456 7.34457C8.07429 6.61485 8.95942 6.24999 9.99998 6.24999C11.0405 6.24999 11.9257 6.61485 12.6554 7.34457C13.3851 8.07429 13.75 8.95943 13.75 9.99999V11.016C13.75 11.4252 13.8907 11.7748 14.1723 12.065C14.4538 12.355 14.7991 12.5 15.2083 12.5C15.6175 12.5 15.9628 12.355 16.2444 12.065C16.5259 11.7748 16.6666 11.4252 16.6666 11.016V9.99999C16.6666 8.13888 16.0208 6.56249 14.7291 5.27082C13.4375 3.97915 11.8611 3.33332 9.99998 3.33332C8.13887 3.33332 6.56248 3.97915 5.27081 5.27082C3.97915 6.56249 3.33331 8.13888 3.33331 9.99999C3.33331 11.8611 3.97915 13.4375 5.27081 14.7292C6.56248 16.0208 8.13887 16.6667 9.99998 16.6667H14.1666V17.9167H9.99998ZM9.99998 12.5C10.6944 12.5 11.2847 12.2569 11.7708 11.7708C12.2569 11.2847 12.5 10.6944 12.5 9.99999C12.5 9.30554 12.2569 8.71526 11.7708 8.22915C11.2847 7.74304 10.6944 7.49999 9.99998 7.49999C9.30554 7.49999 8.71526 7.74304 8.22915 8.22915C7.74304 8.71526 7.49998 9.30554 7.49998 9.99999C7.49998 10.6944 7.74304 11.2847 8.22915 11.7708C8.71526 12.2569 9.30554 12.5 9.99998 12.5Z" fill="#4F4F4F"/>
</g>
</svg>
