<svg width="46" height="64" viewBox="0 0 46 64" fill="none" xmlns="http://www.w3.org/2000/svg">
<g clip-path="url(#clip0_11_437)">
<path d="M22.9724 63.8383L4.50242 58.7109L0.386383 12.5458H45.6136L41.4934 58.7038L22.9724 63.8383Z" fill="#264DE4"/>
<path d="M37.9659 55.7645L41.4868 16.3203H23V59.9135L37.9659 55.7645Z" fill="#2965F1"/>
<path d="M9.8222 33.4424L10.3296 39.1044H23V33.4424H9.8222ZM8.80246 21.9825L9.31712 27.6445H23V21.9825H8.80246ZM23 48.1472L22.9752 48.1538L16.6695 46.4511L16.2663 41.9355H10.5826L11.3758 50.8256L22.9739 54.0451L23 54.038V48.1472Z" fill="#EBEBEB"/>
<path d="M11.0304 0H17.8878V2.86777H13.8982V5.73553H17.8881V8.60312H11.0304V0ZM19.2594 0H26.117V2.4937H22.1272V2.9924H26.117V8.72793H19.2596V6.10925H23.2494V5.61055H19.2593L19.2594 0ZM27.4887 0H34.3463V2.4937H30.3564V2.9924H34.3463V8.72793H27.4887V6.10925H31.4785V5.61055H27.4889V0H27.4887Z" fill="black"/>
<path d="M36.1416 33.4424L37.1637 21.9825H22.9805V27.6445H30.9587L30.4435 33.4424H22.9805V39.1044H29.9526L29.2952 46.4476L22.9803 48.152V54.0425L34.5877 50.8256L34.6728 49.869L36.0035 34.9628L36.1416 33.4424Z" fill="white"/>
</g>
<defs>
<clipPath id="clip0_11_437">
<rect width="45.3888" height="64" fill="white" transform="translate(0.305603)"/>
</clipPath>
</defs>
</svg>
