<svg width="64" height="64" viewBox="0 0 64 64" fill="none" xmlns="http://www.w3.org/2000/svg">
<path d="M32.465 5.82787L9.56329 45.4932L11.6192 46.6802L34.5209 7.0149L32.465 5.82787Z" fill="#E10098"/>
<path d="M54.894 42.324H9.09003V44.698H54.894V42.324Z" fill="#E10098"/>
<path d="M11.1838 41.6015L9.99677 43.6575L32.9064 56.8849L34.0934 54.829L11.1838 41.6015Z" fill="#E10098"/>
<path d="M31.088 7.12645L29.901 9.18237L52.8106 22.4098L53.9976 20.3538L31.088 7.12645Z" fill="#E10098"/>
<path d="M32.9125 7.11977L10.0029 20.3472L11.19 22.4031L34.0996 9.17569L32.9125 7.11977Z" fill="#E10098"/>
<path d="M31.5414 5.82786L29.4855 7.01489L52.3872 46.6802L54.4431 45.4932L31.5414 5.82786Z" fill="#E10098"/>
<path d="M13.282 18.772H10.908V45.228H13.282V18.772Z" fill="#E10098"/>
<path d="M53.094 18.772H50.72V45.228H53.094V18.772Z" fill="#E10098"/>
<path d="M51.392 42.5799L31.4667 54.0842L32.5038 55.8803L52.4291 44.376L51.392 42.5799Z" fill="#E10098"/>
<path d="M56.24 46.0001C55.7465 46.8576 55.0097 47.5494 54.1228 47.988C53.236 48.4266 52.2389 48.5922 51.2579 48.4639C50.2769 48.3356 49.356 47.9191 48.6118 47.2671C47.8676 46.6152 47.3335 45.7572 47.0771 44.8016C46.8208 43.846 46.8537 42.8358 47.1717 41.8989C47.4898 40.962 48.0786 40.1406 48.8637 39.5385C49.6488 38.9364 50.5949 38.5808 51.5822 38.5166C52.5695 38.4525 53.5536 38.6827 54.41 39.1781C55.5562 39.8411 56.3926 40.9317 56.7357 42.2107C57.0787 43.4896 56.9005 44.8524 56.24 46.0001Z" fill="#E10098"/>
<path d="M16.4 23.0001C15.9065 23.8576 15.1697 24.5494 14.2829 24.988C13.396 25.4266 12.399 25.5922 11.4179 25.4639C10.4369 25.3356 9.516 24.9191 8.77178 24.2671C8.02756 23.6152 7.49348 22.7572 7.23714 21.8016C6.9808 20.846 7.01373 19.8358 7.33175 18.8989C7.64978 17.962 8.2386 17.1406 9.0237 16.5385C9.80879 15.9364 10.7549 15.5808 11.7422 15.5166C12.7295 15.4525 13.7136 15.6827 14.57 16.1781C15.7162 16.8411 16.5526 17.9317 16.8957 19.2107C17.2387 20.4896 17.0605 21.8524 16.4 23.0001Z" fill="#E10098"/>
<path d="M7.75997 45.9999C7.26457 45.1435 7.03438 44.1594 7.09854 43.1721C7.1627 42.1848 7.51833 41.2387 8.12041 40.4536C8.72249 39.6685 9.54395 39.0797 10.4808 38.7617C11.4177 38.4437 12.4279 38.4107 13.3835 38.6671C14.3391 38.9234 15.1971 39.4575 15.8491 40.2017C16.501 40.9459 16.9175 41.8668 17.0458 42.8479C17.1741 43.8289 17.0085 44.8259 16.5699 45.7128C16.1313 46.5996 15.4395 47.3365 14.582 47.8299C13.4343 48.4904 12.0715 48.6687 10.7926 48.3256C9.51363 47.9825 8.42301 47.1461 7.75997 45.9999Z" fill="#E10098"/>
<path d="M47.6 22.9999C47.1046 22.1435 46.8744 21.1594 46.9386 20.1721C47.0027 19.1848 47.3584 18.2387 47.9604 17.4536C48.5625 16.6685 49.384 16.0797 50.3209 15.7617C51.2577 15.4437 52.2679 15.4107 53.2235 15.6671C54.1791 15.9234 55.0372 16.4575 55.6891 17.2017C56.341 17.9459 56.7575 18.8668 56.8858 19.8479C57.0141 20.8289 56.8485 21.8259 56.4099 22.7128C55.9714 23.5996 55.2795 24.3365 54.422 24.8299C53.2743 25.4904 51.9115 25.6687 50.6326 25.3256C49.3537 24.9825 48.263 24.1461 47.6 22.9999Z" fill="#E10098"/>
<path d="M32 60C31.0111 60 30.0444 59.7068 29.2222 59.1574C28.3999 58.6079 27.759 57.8271 27.3806 56.9134C27.0022 55.9998 26.9031 54.9945 27.0961 54.0245C27.289 53.0546 27.7652 52.1637 28.4645 51.4645C29.1637 50.7652 30.0546 50.289 31.0245 50.0961C31.9945 49.9031 32.9998 50.0022 33.9134 50.3806C34.8271 50.759 35.6079 51.3999 36.1574 52.2222C36.7068 53.0444 37 54.0111 37 55C37.0018 55.6571 36.8738 56.3081 36.6232 56.9156C36.3725 57.5231 36.0043 58.075 35.5397 58.5397C35.075 59.0043 34.5231 59.3725 33.9156 59.6232C33.3081 59.8738 32.6571 60.0018 32 60Z" fill="#E10098"/>
<path d="M32 13.9819C31.0111 13.9819 30.0444 13.6887 29.2222 13.1393C28.3999 12.5899 27.759 11.809 27.3806 10.8954C27.0022 9.98172 26.9031 8.97639 27.0961 8.00648C27.289 7.03658 27.7652 6.14566 28.4645 5.4464C29.1637 4.74714 30.0546 4.27094 31.0245 4.07801C31.9945 3.88508 32.9998 3.9841 33.9134 4.36254C34.8271 4.74098 35.6079 5.38184 36.1574 6.20408C36.7068 7.02633 37 7.99303 37 8.98194C37.0018 9.63906 36.8738 10.2901 36.6232 10.8975C36.3725 11.505 36.0043 12.0569 35.5397 12.5216C35.075 12.9863 34.5231 13.3545 33.9156 13.6051C33.3081 13.8557 32.6571 13.9838 32 13.9819Z" fill="#E10098"/>
</svg>
