<svg width="20" height="20" viewBox="0 0 20 20" fill="none" xmlns="http://www.w3.org/2000/svg">
<mask id="mask0_8_104" style="mask-type:alpha" maskUnits="userSpaceOnUse" x="0" y="0" width="20" height="20">
<rect width="20" height="20" fill="#D9D9D9"/>
</mask>
<g mask="url(#mask0_8_104)">
<path d="M10.0015 9.8877C10.4161 9.8877 10.7705 9.74006 11.0648 9.44479C11.3593 9.14951 11.5065 8.79458 11.5065 8.37999C11.5065 7.96541 11.3588 7.6109 11.0636 7.31645C10.7683 7.02215 10.4133 6.87499 9.99856 6.87499C9.58398 6.87499 9.22954 7.02263 8.93523 7.31791C8.64079 7.61319 8.49356 7.96819 8.49356 8.38291C8.49356 8.79749 8.6412 9.15194 8.93648 9.44625C9.23176 9.74055 9.58676 9.8877 10.0015 9.8877ZM10 16.2612C11.6303 14.8018 12.8779 13.4019 13.7427 12.0617C14.6076 10.7214 15.04 9.54749 15.04 8.53999C15.04 7.02083 14.5574 5.77194 13.5921 4.79333C12.6268 3.81472 11.4295 3.32541 10 3.32541C8.57058 3.32541 7.37322 3.81472 6.40794 4.79333C5.44266 5.77194 4.96002 7.02083 4.96002 8.53999C4.96002 9.54749 5.39245 10.7214 6.25731 12.0617C7.12217 13.4019 8.36974 14.8018 10 16.2612ZM10 17.9246C7.9028 16.1074 6.33016 14.4162 5.28211 12.851C4.23405 11.2858 3.71002 9.84874 3.71002 8.53999C3.71002 6.61694 4.33204 5.06006 5.57606 3.86937C6.82023 2.67868 8.29488 2.08333 10 2.08333C11.7052 2.08333 13.1798 2.67868 14.424 3.86937C15.668 5.06006 16.29 6.61694 16.29 8.53999C16.29 9.84874 15.766 11.2858 14.7179 12.851C13.6699 14.4162 12.0972 16.1074 10 17.9246Z" fill="#4F4F4F"/>
</g>
</svg>
