<svg width="64" height="64" viewBox="0 0 64 64" fill="none" xmlns="http://www.w3.org/2000/svg">
<path fill-rule="evenodd" clip-rule="evenodd" d="M44.019 21.406C44.8215 23.7275 45.3995 26.0975 45.5895 28.554C45.8255 31.6015 45.7175 34.6275 45.075 37.625C45.0575 37.7075 45.0205 37.785 44.993 37.865C44.7915 37.8655 44.586 37.8405 44.389 37.871C42.7245 38.1325 41.0615 38.4035 39.3985 38.673C37.6795 38.9515 35.958 39.219 34.242 39.5165C33.634 39.6215 32.8815 39.496 32.636 40.337C32.629 40.36 32.559 40.364 32.5185 40.377L32.6015 35.3515C32.573 31.3095 32.545 27.2675 32.517 23.2255L33.318 23.088C34.628 22.8735 35.938 22.656 37.249 22.4475C38.8135 22.199 40.3795 21.9575 41.945 21.715C42.6355 21.6075 43.327 21.509 44.019 21.406Z" fill="#439934"/>
<path fill-rule="evenodd" clip-rule="evenodd" d="M30.8645 55.027C30.0195 54.3005 29.145 53.606 28.335 52.842C23.9765 48.731 20.7885 43.8925 19.2185 38.059C18.786 36.4535 18.4975 34.822 18.405 33.163C18.34 32.002 18.246 30.8305 18.328 29.6755C18.5465 26.6035 18.9905 23.561 19.8915 20.602L19.941 20.533C20.0285 20.6495 20.1545 20.7525 20.199 20.884C21.0785 23.474 21.9515 26.066 22.82 28.6595C25.549 36.8095 28.2745 44.9615 31.008 53.1095C31.0615 53.2685 31.2 53.399 31.2995 53.5425L30.8645 55.027Z" fill="#45A538"/>
<path fill-rule="evenodd" clip-rule="evenodd" d="M44.019 21.406C43.327 21.509 42.635 21.6075 41.9445 21.714C40.379 21.9565 38.813 22.198 37.2485 22.4465C35.9375 22.655 34.6275 22.8725 33.3175 23.087L32.5165 23.2245L32.5105 22.702C32.484 22.2725 32.4385 21.8435 32.4335 21.414C32.399 18.675 32.3775 15.936 32.3435 13.197C32.3225 11.4825 32.291 9.76855 32.256 8.05455C32.2345 6.98955 32.2115 5.92405 32.1635 4.86055C32.1375 4.28905 32.0455 3.72055 32.008 3.14905C31.987 2.82055 32.016 2.48955 32.0225 2.15955C32.431 2.95105 32.8305 3.74855 33.2505 4.53405C33.914 5.77605 34.971 6.69105 35.9225 7.68955C39.684 11.6355 42.3545 16.2235 44.019 21.406Z" fill="#46A037"/>
<path fill-rule="evenodd" clip-rule="evenodd" d="M32.518 40.3765C32.5585 40.3635 32.629 40.3595 32.6355 40.3365C32.881 39.4955 33.6335 39.621 34.2415 39.516C35.9575 39.219 37.679 38.951 39.398 38.6725C41.061 38.403 42.724 38.132 44.3885 37.8705C44.5855 37.8395 44.791 37.865 44.9925 37.8645C44.6815 38.9745 44.4365 40.1085 44.042 41.188C43.594 42.4125 43.052 43.6075 42.4765 44.779C41.6165 46.5305 40.545 48.164 39.3 49.6605C38.3405 50.8145 37.271 51.881 36.199 52.9345C35.6065 53.517 34.908 53.9915 34.258 54.515L34.0895 54.4L33.4825 53.881L32.8545 52.5045C32.422 50.893 32.195 49.2525 32.1575 47.5855L32.169 47.305L32.2545 46.092C32.283 45.678 32.321 45.2645 32.3385 44.8495C32.403 43.3585 32.459 41.8675 32.518 40.3765Z" fill="#409433"/>
<path fill-rule="evenodd" clip-rule="evenodd" d="M32.518 40.3766C32.459 41.8676 32.403 43.3586 32.3395 44.8501C32.322 45.2651 32.284 45.6786 32.2555 46.0926L31.873 46.2371C31.0235 43.7361 30.1735 41.2616 29.342 38.7806C27.967 34.6761 26.6085 30.5651 25.2355 26.4596C24.127 23.1456 23.0095 19.8351 21.8855 16.5261C21.833 16.3711 21.682 16.2501 21.577 16.1131L24.025 11.6121C24.109 11.7581 24.22 11.8946 24.273 12.0516C25.4055 15.4031 26.536 18.7551 27.657 22.1106C29.115 26.4756 30.564 30.8441 32.021 35.2096C32.079 35.3841 32.175 35.5451 32.2665 35.7406L32.6015 35.3506C32.5735 37.0261 32.5455 38.7011 32.518 40.3766Z" fill="#4FAA41"/>
<path fill-rule="evenodd" clip-rule="evenodd" d="M21.5775 16.1135C21.6825 16.2505 21.833 16.3715 21.886 16.5265C23.01 19.8355 24.1275 23.146 25.236 26.46C26.609 30.5655 27.9675 34.6765 29.3425 38.781C30.1735 41.2615 31.0235 43.7365 31.8735 46.2375L32.256 46.093L32.1705 47.306L32.093 47.5855C31.96 48.9135 31.848 50.2445 31.686 51.5695C31.6045 52.2335 31.4315 52.8855 31.3 53.543C31.201 53.3995 31.062 53.269 31.0085 53.11C28.275 44.9615 25.5495 36.81 22.8205 28.66C21.952 26.0665 21.079 23.4745 20.1995 20.8845C20.155 20.753 20.0295 20.65 19.9415 20.5335C20.4865 19.06 21.032 17.5865 21.5775 16.1135Z" fill="#4AA73C"/>
<path fill-rule="evenodd" clip-rule="evenodd" d="M32.601 35.351L32.266 35.741C32.1745 35.5455 32.0785 35.384 32.0205 35.21C30.564 30.8445 29.1145 26.476 27.6565 22.111C26.5355 18.7555 25.405 15.4035 24.2725 12.052C24.22 11.895 24.109 11.758 24.0245 11.6125L27.052 7.63C27.1475 7.7575 27.2835 7.871 27.333 8.0145C28.1735 10.475 29.0065 12.9385 29.8345 15.4035C30.608 17.7055 31.37 20.011 32.1525 22.31C32.205 22.464 32.3875 22.573 32.5095 22.703L32.5155 23.2255C32.5445 27.2665 32.573 31.309 32.601 35.351Z" fill="#57AE47"/>
<path fill-rule="evenodd" clip-rule="evenodd" d="M32.5105 22.702C32.3885 22.572 32.206 22.463 32.1535 22.309C31.371 20.01 30.609 17.7045 29.8355 15.4025C29.0075 12.9375 28.1745 10.4745 27.334 8.01348C27.2845 7.86998 27.1485 7.75648 27.053 7.62898C28.0375 6.66498 28.9915 5.66648 30.0155 4.74698C30.926 3.92998 31.658 3.05398 31.6915 1.76298C31.693 1.70948 31.721 1.65598 31.764 1.50598L32.0235 2.15898C32.017 2.48948 31.9875 2.81998 32.009 3.14848C32.0465 3.71998 32.1385 4.28848 32.1645 4.85998C32.2125 5.92348 32.2355 6.98898 32.257 8.05398C32.2915 9.76798 32.323 11.482 32.3445 13.1965C32.378 15.9355 32.4 18.6745 32.4345 21.4135C32.4385 21.844 32.4835 22.2725 32.5105 22.702Z" fill="#60B24F"/>
<path fill-rule="evenodd" clip-rule="evenodd" d="M31.299 53.5425C31.4305 52.885 31.6035 52.2325 31.685 51.569C31.8475 50.2445 31.959 48.913 32.092 47.585L32.125 47.58L32.158 47.5855C32.1955 49.2525 32.4225 50.893 32.855 52.5045C32.767 52.6205 32.6425 52.724 32.596 52.855C32.2325 53.88 31.89 54.913 31.5245 55.938C31.4745 56.078 31.3355 56.187 31.2375 56.31L30.864 55.027L31.299 53.5425Z" fill="#A9AA88"/>
<path fill-rule="evenodd" clip-rule="evenodd" d="M31.238 56.3105C31.336 56.1875 31.4755 56.0785 31.525 55.9385C31.8905 54.9135 32.2335 53.881 32.5965 52.8555C32.643 52.7245 32.767 52.621 32.8555 52.505L33.483 53.882C33.359 54.058 33.188 54.2165 33.119 54.4125L31.917 57.942C31.8675 58.0835 31.6985 58.1835 31.5855 58.303L31.238 56.3105Z" fill="#B6B598"/>
<path fill-rule="evenodd" clip-rule="evenodd" d="M31.5855 58.3025C31.699 58.1835 31.8675 58.083 31.917 57.9415L33.119 54.412C33.1875 54.2165 33.359 54.0575 33.483 53.8815L34.0905 54.4C33.797 54.69 33.634 55.025 33.732 55.4485L33.5475 56.0525C33.4635 56.156 33.342 56.246 33.3005 56.3645C32.881 57.566 32.4805 58.774 32.058 59.9755C32.0045 60.128 31.856 60.2475 31.751 60.3815C31.6965 59.688 31.641 58.996 31.5855 58.3025Z" fill="#C2C1A7"/>
<path fill-rule="evenodd" clip-rule="evenodd" d="M31.7515 60.3815C31.856 60.247 32.0045 60.1275 32.0585 59.9755C32.481 58.7745 32.8815 57.5665 33.301 56.3645C33.3425 56.2465 33.4635 56.156 33.548 56.0525L33.2935 58.825C33.2255 58.9035 33.127 58.972 33.0945 59.0635C32.807 59.8705 32.536 60.6835 32.2475 61.4905C32.188 61.657 32.074 61.804 31.985 61.9595C31.906 61.856 31.7645 61.756 31.758 61.648C31.7325 61.2275 31.75 60.804 31.7515 60.3815Z" fill="#CECDB7"/>
<path fill-rule="evenodd" clip-rule="evenodd" d="M31.9845 61.9594C32.0735 61.8034 32.1875 61.6565 32.247 61.4905C32.536 60.684 32.8065 59.8709 33.094 59.0634C33.1265 58.9719 33.2255 58.904 33.293 58.825L33.299 60.645L32.69 62.207L31.9845 61.9594Z" fill="#DBDAC7"/>
<path fill-rule="evenodd" clip-rule="evenodd" d="M32.69 62.2075L33.299 60.6455L33.4245 62.4935L32.69 62.2075Z" fill="#EBE9DC"/>
<path fill-rule="evenodd" clip-rule="evenodd" d="M33.732 55.449C33.634 55.0255 33.7965 54.69 34.0905 54.4005L34.259 54.5155L33.732 55.449Z" fill="#CECDB7"/>
<path fill-rule="evenodd" clip-rule="evenodd" d="M32.158 47.586L32.125 47.5805L32.092 47.5855L32.1695 47.306L32.158 47.586Z" fill="#4FAA41"/>
</svg>
