<svg width="60" height="64" viewBox="0 0 60 64" fill="none" xmlns="http://www.w3.org/2000/svg">
<path d="M27.3846 0.812399C28.9646 -0.0919982 31.0226 -0.0960832 32.6013 0.812399C40.5434 5.30012 48.488 9.7808 56.4288 14.2712C57.9224 15.1125 58.9214 16.7747 58.9062 18.4957V45.4955C58.9173 47.2877 57.8196 48.9896 56.2438 49.8119C48.3278 54.2749 40.4159 58.7433 32.5012 63.2063C30.8885 64.1284 28.7892 64.0573 27.2269 63.0597C24.8537 61.6839 22.4764 60.3149 20.1029 58.9405C19.6179 58.6514 19.0712 58.4213 18.7287 57.951C19.0315 57.543 19.5728 57.4921 20.0126 57.314C21.0032 56.999 21.9131 56.4933 22.8231 56.0026C23.0533 55.8451 23.3342 55.9055 23.5548 56.0464C25.5842 57.21 27.5957 58.4074 29.6319 59.5599C30.0663 59.8106 30.5061 59.4777 30.8774 59.2707C38.6454 54.8804 46.423 50.5066 54.1897 46.1149C54.4775 45.9764 54.6366 45.671 54.6132 45.3557C54.6187 36.4491 54.6146 27.5408 54.6159 18.6341C54.6488 18.2765 54.4419 17.9476 54.1185 17.8012C46.2299 13.3587 38.3454 8.90931 30.4582 4.46562C30.3216 4.37167 30.1597 4.32127 29.9938 4.32102C29.828 4.32078 29.666 4.37071 29.5291 4.46426C21.6419 8.90931 13.7587 13.3628 5.87153 17.8051C5.54927 17.9517 5.33298 18.2751 5.37134 18.6341C5.3727 27.5408 5.37134 36.4491 5.37134 45.3571C5.35766 45.5109 5.39144 45.6652 5.46813 45.7992C5.54482 45.9332 5.66074 46.0406 5.80027 46.1067C7.90501 47.3002 10.0125 48.4854 12.1186 49.6748C13.3051 50.3134 14.7619 50.6929 16.0691 50.2036C17.2227 49.7899 18.0313 48.6127 18.0093 47.3878C18.0202 38.5331 18.0038 29.6771 18.0175 20.8237C17.9886 20.4307 18.3615 20.1059 18.7437 20.1429C19.755 20.1361 20.7676 20.1293 21.7789 20.1456C22.2011 20.1361 22.4916 20.5593 22.4394 20.9554C22.4353 29.8661 22.4503 38.7771 22.4326 47.6879C22.4353 50.0627 21.4596 52.6467 19.263 53.8087C16.5568 55.2106 13.212 54.9133 10.5385 53.5691C8.2241 52.4139 6.01542 51.0506 3.74206 49.813C2.16226 48.9953 1.06995 47.2866 1.08107 45.4957V18.4957C1.0645 16.7391 2.10325 15.0467 3.64334 14.2177C11.558 9.75107 19.4713 5.28105 27.3846 0.812399Z" fill="#8CC84B"/>
<path d="M34.2894 19.5155C37.7413 19.2933 41.4367 19.3839 44.543 21.0844C46.948 22.3876 48.2813 25.1225 48.3237 27.7944C48.2566 28.1548 47.8798 28.3536 47.5358 28.3289C46.5342 28.3275 45.5325 28.3425 44.531 28.3221C44.1061 28.3384 43.8592 27.9467 43.8058 27.5711C43.5181 26.2927 42.8209 25.0265 41.6176 24.4099C39.7704 23.4851 37.6287 23.5316 35.6145 23.5509C34.1441 23.629 32.563 23.7563 31.3172 24.621C30.3609 25.276 30.0704 26.5982 30.4117 27.663C30.7335 28.4276 31.6161 28.6743 32.3383 28.9017C36.4983 29.9897 40.9066 29.8815 44.9871 31.3133C46.6765 31.897 48.3292 33.0318 48.9075 34.8006C49.6639 37.1713 49.3323 40.005 47.6456 41.9082C46.2778 43.4744 44.2856 44.3268 42.2987 44.7898C39.6554 45.3792 36.9122 45.3942 34.2279 45.1325C31.7037 44.8447 29.077 44.1816 27.1284 42.4618C25.4621 41.015 24.6483 38.7607 24.7291 36.5849C24.7484 36.2175 25.1142 35.9612 25.4662 35.9914C26.4748 35.9832 27.4833 35.9805 28.4919 35.9928C28.8948 35.964 29.1934 36.3121 29.2141 36.6918C29.4002 37.9098 29.8579 39.1882 30.9201 39.9104C32.9699 41.2328 35.5419 41.1423 37.889 41.1793C39.8335 41.093 42.0163 41.0669 43.6032 39.7817C44.4404 39.0487 44.6885 37.8222 44.4622 36.7671C44.2171 35.8764 43.2852 35.4613 42.485 35.1898C38.3783 33.8908 33.9208 34.3621 29.8538 32.8931C28.2028 32.3096 26.6062 31.2064 25.9719 29.5102C25.0868 27.1095 25.4923 24.1401 27.3558 22.3011C29.1728 20.4719 31.7956 19.7676 34.2894 19.5155Z" fill="#8CC84B"/>
</svg>
