<svg width="64" height="64" viewBox="0 0 64 64" fill="none" xmlns="http://www.w3.org/2000/svg">
<path d="M62.7867 38.3201C62.4147 37.1932 61.44 36.4083 60.1795 36.2199C59.5851 36.1312 58.9045 36.169 58.099 36.3351C56.695 36.6247 55.6534 36.735 54.8932 36.7564C57.7625 31.912 60.0956 26.3877 61.4388 21.1875C63.6107 12.7789 62.45 8.94823 61.0938 7.21555C57.5046 2.62934 52.268 0.165591 45.9506 0.0902041C42.5805 0.0489961 39.622 0.714384 38.0787 1.19288C36.6417 0.939331 35.0967 0.79777 33.4755 0.771591C30.4365 0.723111 27.7515 1.38559 25.4571 2.74715C24.187 2.31762 22.1484 1.7121 19.7942 1.32572C14.2573 0.416717 9.79471 1.12501 6.53055 3.43096C2.57798 6.22292 0.745678 11.0738 1.08455 17.8489C1.19218 20 2.39545 26.5448 4.29005 32.7517C5.37891 36.3193 6.54001 39.2819 7.7411 41.5581C9.44444 44.7856 11.267 46.6863 13.3131 47.3689C14.4599 47.7509 16.5436 48.0185 18.7352 46.1932C19.0129 46.5297 19.3836 46.864 19.8754 47.1745C20.5001 47.5684 21.2639 47.8903 22.0267 48.081C24.7758 48.7682 27.3508 48.5964 29.5476 47.6331C29.5612 48.0238 29.5716 48.3971 29.5804 48.7195C29.5949 49.2424 29.6095 49.7551 29.6286 50.2345C29.7588 53.4764 29.9794 55.9971 30.6329 57.7608C30.6687 57.8578 30.717 58.0056 30.7679 58.1625C31.0939 59.1607 31.6391 60.8318 33.0261 62.1405C34.4623 63.4962 36.1996 63.9119 37.7907 63.9119C38.5887 63.9119 39.3501 63.8072 40.0179 63.6642C42.3982 63.154 45.1017 62.3768 47.0574 59.5921C48.9064 56.9597 49.8053 52.9947 49.9679 46.7474C49.989 46.5706 50.0084 46.4019 50.0271 46.2412L50.0658 45.9111L50.5014 45.9494L50.6137 45.9569C53.0381 46.0674 56.0027 45.5533 57.8234 44.7076C59.262 44.04 63.8722 41.6061 62.7867 38.3201Z" fill="black"/>
<path d="M58.6412 38.959C51.4322 40.4461 50.9365 38.0054 50.9365 38.0054C58.5479 26.7112 61.7299 12.375 58.9842 8.86621C51.4931 -0.704952 38.5259 3.82162 38.3094 3.93895L38.2399 3.95155C36.8155 3.65582 35.2217 3.47984 33.4302 3.45051C30.1684 3.39718 27.694 4.3057 25.8164 5.72955C25.8164 5.72955 2.68415 -3.80016 3.76016 17.7148C3.98899 22.2918 10.3205 52.3472 17.8722 43.2691C20.6324 39.9494 23.2995 37.1427 23.2995 37.1427C24.624 38.0226 26.2098 38.4715 27.8722 38.3103L28.0014 38.2007C27.9611 38.6128 27.9796 39.0159 28.053 39.4932C26.1075 41.6668 26.6793 42.0483 22.7903 42.849C18.8549 43.6601 21.1667 45.1038 22.6761 45.4815C24.506 45.9389 28.7392 46.587 31.5996 42.5828L31.4856 43.0398C32.2477 43.6504 32.783 47.011 32.6933 50.0577C32.6036 53.1042 32.5437 55.1959 33.1441 56.8297C33.745 58.4634 34.3435 62.1394 39.4562 61.044C43.728 60.1285 45.9419 57.7561 46.25 53.7987C46.4684 50.9854 46.9631 51.4013 46.9941 48.886L47.3909 47.6953C47.8484 43.8816 47.4637 42.6512 50.0954 43.2235L50.7353 43.2797C52.6721 43.3677 55.2076 42.968 56.6957 42.2764C59.8998 40.7896 61.8002 38.3067 58.6407 38.959H58.6412Z" fill="#336791"/>
<path d="M27.1704 19.7616C26.5208 19.6712 25.9325 19.7548 25.6348 19.9803C25.4676 20.107 25.4157 20.2539 25.4017 20.355C25.3643 20.6229 25.5519 20.9191 25.6673 21.0718C25.9936 21.5042 26.4702 21.8014 26.9419 21.8669C27.0102 21.8766 27.0783 21.8809 27.146 21.8809C27.9325 21.8809 28.6479 21.2684 28.7109 20.8163C28.7897 20.2501 27.9677 19.8724 27.1704 19.7616ZM48.6917 19.7796C48.6296 19.3357 47.8399 19.2092 47.0904 19.3134C46.3419 19.4177 45.6161 19.7556 45.6767 20.2004C45.7252 20.5463 46.3499 21.1368 47.0892 21.1368C47.1517 21.1368 47.2147 21.1326 47.2783 21.1237C47.7718 21.0553 48.1339 20.7419 48.306 20.5613C48.5678 20.2859 48.7196 19.9791 48.6917 19.7796Z" fill="white"/>
<path d="M61.04 38.79C60.7651 37.9588 59.8804 37.6915 58.4105 37.995C54.046 38.8957 52.483 38.2718 51.9699 37.8939C55.3623 32.7259 58.153 26.4788 59.6586 20.6503C60.3717 17.8893 60.7656 15.3252 60.7978 13.2353C60.8335 10.9414 60.4427 9.25578 59.637 8.22606C56.3884 4.07496 51.6203 1.84828 45.8488 1.78719C41.881 1.74259 38.5286 2.758 37.8787 3.04355C36.5101 2.70322 35.0181 2.49427 33.3938 2.46761C30.4152 2.41937 27.8404 3.13251 25.7087 4.58618C24.7828 4.24149 22.3898 3.42 19.4633 2.94853C14.4039 2.13407 10.3835 2.75122 7.51445 4.78374C4.09103 7.20919 2.51058 11.5448 2.81673 17.6697C2.91975 19.7304 4.09394 26.0696 5.94685 32.1405C8.38587 40.131 11.0372 44.6544 13.8268 45.585C14.1533 45.6938 14.5297 45.7699 14.945 45.7699C15.9626 45.7699 17.2102 45.3113 18.5083 43.7508C20.0915 41.8514 21.7293 39.9982 23.4195 38.1935C24.5161 38.782 25.7209 39.1107 26.953 39.1437C26.9554 39.1759 26.9586 39.2082 26.9615 39.2402C26.7494 39.4931 26.5417 39.7497 26.3385 40.0098C25.4848 41.0936 25.3071 41.3192 22.559 41.885C21.7773 42.0464 19.7011 42.4743 19.6706 43.9296C19.6376 45.5198 22.1249 46.1876 22.4082 46.2584C23.3958 46.5056 24.3472 46.6276 25.2545 46.6276C27.4611 46.6276 29.4029 45.9023 30.9548 44.499C30.907 50.1678 31.1434 55.7537 31.824 57.4556C32.3815 58.8489 33.7433 62.2539 38.045 62.2536C38.6762 62.2536 39.3709 62.1802 40.1352 62.0163C44.6247 61.054 46.5743 59.0697 47.3284 54.6951C47.732 52.3572 48.4245 46.7744 48.7503 43.7798C49.4378 43.9944 50.3228 44.0925 51.2795 44.0923C53.275 44.0923 55.5775 43.6683 57.0215 42.9981C58.6436 42.2447 61.5709 40.3962 61.04 38.79ZM50.3487 18.5545C50.3339 19.4385 50.2122 20.2411 50.0833 21.0788C49.9444 21.9798 49.8009 22.9114 49.7648 24.0422C49.7291 25.1427 49.8666 26.2868 49.9994 27.3934C50.268 29.6283 50.5436 31.9291 49.4768 34.1995C49.2996 33.8855 49.1417 33.5609 49.0041 33.2277C48.8715 32.9063 48.5836 32.3899 48.1848 31.6754C46.6337 28.8936 43.0013 22.3793 44.8608 19.7212C45.4147 18.93 46.8203 18.1165 50.3487 18.5545ZM46.0718 3.57732C51.2432 3.69149 55.3339 5.62608 58.2301 9.32704C60.4515 12.1658 58.0054 25.0826 50.9242 36.2259C50.853 36.1354 50.7814 36.0451 50.7094 35.9552L50.6197 35.8432C52.4496 32.8212 52.0918 29.8312 51.7733 27.1803C51.6424 26.0924 51.5188 25.0649 51.5503 24.0996C51.5828 23.0767 51.718 22.1992 51.8489 21.3508C52.0096 20.3053 52.1733 19.2235 52.1282 17.9482C52.1619 17.8144 52.1754 17.6564 52.1577 17.4688C52.0426 16.2459 50.6464 12.5859 47.8006 9.27323C46.2439 7.46129 43.9738 5.43361 40.8743 4.06599C42.2075 3.78966 44.0306 3.53199 46.0718 3.57732ZM17.1346 42.6086C15.7044 44.3281 14.7169 43.9985 14.3921 43.8904C12.2759 43.1845 9.8204 38.7117 7.65552 31.6191C5.78226 25.482 4.68758 19.3108 4.6008 17.5803C4.32737 12.1074 5.65403 8.29321 8.54416 6.24347C13.2477 2.90805 20.9807 4.90446 24.0881 5.91696C24.0435 5.96108 23.9969 6.00228 23.9528 6.04713C18.8537 11.1967 18.9746 19.9948 18.9872 20.5327C18.9868 20.7402 19.0042 21.034 19.028 21.4381C19.1157 22.9179 19.2791 25.6721 18.8428 28.791C18.4375 31.6894 19.331 34.5262 21.2937 36.5743C21.4951 36.784 21.7068 36.9837 21.928 37.1725C21.0544 38.1082 19.1557 40.1773 17.1346 42.6086ZM22.5835 35.3383C21.0016 33.6875 20.2831 31.3915 20.612 29.0383C21.0726 25.7436 20.9027 22.874 20.8113 21.3324C20.7985 21.1166 20.7871 20.9276 20.7805 20.7785C21.5254 20.118 24.9774 18.2685 27.4392 18.8325C28.5625 19.0897 29.2471 19.8547 29.5316 21.1705C31.0045 27.9826 29.7265 30.8219 28.6997 33.1036C28.4881 33.5736 28.2881 34.0179 28.1175 34.4775L27.9851 34.8329C27.6501 35.7312 27.3384 36.5665 27.1452 37.3596C25.4634 37.3548 23.8275 36.6363 22.5835 35.338V35.3383ZM22.8416 44.5252C22.3505 44.4026 21.9089 44.1895 21.6498 44.0128C21.8662 43.911 22.2514 43.7723 22.9195 43.6346C26.1523 42.9693 26.6517 42.4995 27.742 41.1151C27.9919 40.7976 28.2753 40.4379 28.6677 39.9996L28.6682 39.9991C29.2526 39.3446 29.52 39.4557 30.0048 39.6569C30.3977 39.8193 30.7805 40.3118 30.9356 40.8538C31.0091 41.1098 31.0915 41.5956 30.8217 41.9737C28.5441 45.1627 25.2252 45.1218 22.8416 44.5252ZM39.7609 60.2696C35.8059 61.117 34.4056 59.099 33.4828 56.7921C32.8872 55.3028 32.5944 48.5869 32.8021 41.1702C32.8048 41.0715 32.7907 40.9762 32.7636 40.8866C32.7393 40.7094 32.7023 40.5343 32.653 40.3625C32.3442 39.2833 31.5916 38.3806 30.6886 38.0064C30.3299 37.8578 29.6715 37.5851 28.8803 37.7875C29.049 37.0923 29.3416 36.3071 29.6589 35.457L29.792 35.0995C29.9418 34.6964 30.1299 34.2787 30.3287 33.8366C31.4032 31.4494 32.8748 28.1797 31.2776 20.793C30.6794 18.0263 28.6815 16.6752 25.653 16.9891C23.8374 17.1769 22.1763 17.9095 21.3477 18.3295C21.1696 18.4197 21.0067 18.507 20.8544 18.5918C21.0857 15.8042 21.9593 10.5946 25.2273 7.2984C27.2851 5.22345 30.0254 4.19859 33.3642 4.25385C39.943 4.36148 44.1617 7.73763 46.5425 10.5512C48.5942 12.9754 49.7051 15.4176 50.1485 16.7348C46.8143 16.3957 44.5466 17.0538 43.3972 18.6973C40.8963 22.2722 44.7653 29.2106 46.6247 32.5453C46.9658 33.1564 47.2601 33.6846 47.3526 33.9091C47.9582 35.3766 48.7421 36.3563 49.3144 37.0714C49.4899 37.2905 49.6601 37.5031 49.7895 37.6888C48.7797 37.9799 46.9658 38.6526 47.1311 42.0149C46.9978 43.702 46.0497 51.6009 45.5681 54.3916C44.9323 58.0785 43.5756 59.4517 39.7609 60.2698V60.2696ZM56.2693 41.3779C55.2367 41.8571 53.5086 42.2166 51.8671 42.2939C50.054 42.3788 49.1309 42.0908 48.9137 41.9136C48.8119 39.8183 49.5917 39.5994 50.4171 39.3677C50.5468 39.3313 50.6733 39.2957 50.7955 39.253C50.8713 39.3148 50.9545 39.3762 51.0456 39.4363C52.5029 40.3981 55.1022 40.5019 58.7719 39.7444L58.8121 39.7364C58.3171 40.1991 57.4702 40.8201 56.2693 41.3779Z" fill="white"/>
</svg>
