<svg width="64" height="64" viewBox="0 0 64 64" fill="none" xmlns="http://www.w3.org/2000/svg">
<g clip-path="url(#clip0_11_534)">
<path d="M58.0775 48.6231L36.1292 2.01278C35.5736 0.844157 34.4221 0.074203 33.1298 0.00733141C31.8346 -0.0794505 30.5986 0.5613 29.923 1.66976L6.11768 40.2264C5.37865 41.415 5.3942 42.9238 6.15757 44.0969L17.7962 62.1204C18.7005 63.5099 20.4111 64.139 22.0001 63.6664L55.7753 53.6758C56.8042 53.375 57.6522 52.6429 58.0998 51.6688C58.5414 50.6994 58.5338 49.5848 58.0791 48.6215L58.0775 48.6231ZM53.1636 50.6222L24.5034 59.0971C23.6291 59.3572 22.7899 58.5993 22.9718 57.7171L33.2112 8.68804C33.4026 7.77067 34.6694 7.62549 35.0699 8.47425L54.0251 48.7268C54.1947 49.0899 54.1968 49.5089 54.0307 49.8736C53.8646 50.2382 53.5472 50.5118 53.162 50.6222H53.1636Z" fill="black"/>
</g>
<defs>
<clipPath id="clip0_11_534">
<rect width="64" height="64" fill="white"/>
</clipPath>
</defs>
</svg>
