<svg width="64" height="64" viewBox="0 0 64 64" fill="none" xmlns="http://www.w3.org/2000/svg">
<path d="M32 37.7001C35.148 37.7001 37.7 35.1481 37.7 32C37.7 28.852 35.148 26.3 32 26.3C28.852 26.3 26.3 28.852 26.3 32C26.3 35.1481 28.852 37.7001 32 37.7001Z" fill="#61DAFB"/>
<path d="M53.65 22.6001C52.55 22.2001 51.4 21.8001 50.2 21.4501C50.5 20.2501 50.75 19.0501 50.95 17.9C52 11.3 50.85 6.65005 47.65 4.85005C46.7 4.30005 45.65 4.05005 44.45 4.05005C40.95 4.05005 36.5 6.65005 32 11C27.5 6.65005 23.05 4.05005 19.55 4.05005C18.35 4.05005 17.3 4.30005 16.35 4.85005C13.15 6.70005 12 11.35 13.05 17.9C13.25 19.0501 13.5 20.2501 13.8 21.4501C12.6 21.8001 11.45 22.1501 10.35 22.6001C4.10001 25.0001 0.700012 28.3001 0.700012 32.0001C0.700012 35.7001 4.15001 39.0001 10.35 41.4001C11.45 41.8001 12.6 42.2001 13.8 42.5501C13.5 43.7501 13.25 44.9501 13.05 46.1001C12 52.7001 13.15 57.3501 16.35 59.1501C17.3 59.7001 18.35 59.9501 19.55 59.9501C23.1 59.9501 27.55 57.3501 32 53.0001C36.5 57.3501 40.95 59.9501 44.45 59.9501C45.65 59.9501 46.7 59.7001 47.65 59.1501C50.85 57.3001 52 52.6501 50.95 46.1001C50.75 44.9501 50.5 43.7501 50.2 42.5501C51.4 42.2001 52.55 41.8501 53.65 41.4001C59.9 39.0001 63.3 35.7001 63.3 32.0001C63.3 28.3001 59.9 25.0001 53.65 22.6001ZM46.25 7.35005C48.3 8.55005 49 12.25 48.15 17.5001C48 18.5501 47.75 19.6501 47.45 20.8001C44.85 20.2001 42.1 19.8 39.2 19.55C37.5 17.15 35.75 15.0001 34 13.05C37.7 9.40005 41.45 6.90005 44.5 6.90005C45.15 6.90005 45.75 7.05005 46.25 7.35005ZM40.65 37.0001C39.75 38.6001 38.7 40.2001 37.6 41.8001C35.75 41.9501 33.9 42.0001 32 42.0001C30.05 42.0001 28.2 41.9501 26.4 41.8001C25.3 40.2001 24.3 38.6001 23.4 37.0001C22.45 35.3501 21.55 33.6501 20.75 32.0001C21.55 30.3501 22.45 28.6501 23.4 27.0001C24.3 25.4001 25.35 23.8001 26.45 22.2001C28.3 22.0501 30.15 22.0001 32.05 22.0001C34 22.0001 35.85 22.0501 37.65 22.2001C38.75 23.8001 39.75 25.4001 40.65 27.0001C41.6 28.6501 42.5 30.3501 43.3 32.0001C42.45 33.6501 41.6 35.3001 40.65 37.0001ZM44.8 35.3501C45.55 37.1001 46.15 38.8001 46.7 40.5001C45 40.9001 43.2 41.2001 41.3 41.4501C41.9 40.5001 42.55 39.5001 43.1 38.4501C43.7 37.4001 44.25 36.3501 44.8 35.3501ZM32 48.9001C30.8 47.6001 29.65 46.2001 28.55 44.7501C29.7 44.8001 30.85 44.8501 32 44.8501C33.15 44.8501 34.3 44.8001 35.45 44.7501C34.35 46.2001 33.2 47.6001 32 48.9001ZM22.7 41.4001C20.8 41.1501 19 40.8501 17.3 40.4501C17.85 38.8001 18.45 37.0501 19.2 35.3001C19.75 36.3001 20.3 37.3501 20.9 38.3501C21.5 39.4501 22.1 40.4001 22.7 41.4001ZM19.2 28.6501C18.45 26.9001 17.85 25.2001 17.3 23.5001C19 23.1001 20.8 22.8001 22.7 22.5501C22.1 23.5001 21.45 24.5001 20.9 25.5501C20.3 26.6001 19.75 27.6501 19.2 28.6501ZM32 15.1001C33.2 16.4001 34.35 17.8001 35.45 19.2501C34.3 19.2001 33.15 19.1501 32 19.1501C30.85 19.1501 29.7 19.2001 28.55 19.2501C29.65 17.8001 30.8 16.4001 32 15.1001ZM43.1 25.6001L41.3 22.6001C43.2 22.8501 45 23.1501 46.7 23.5501C46.15 25.2001 45.55 26.9501 44.8 28.7001C44.25 27.6501 43.7 26.6001 43.1 25.6001ZM15.85 17.5001C15 12.25 15.7 8.55005 17.75 7.35005C18.25 7.05005 18.85 6.90005 19.5 6.90005C22.5 6.90005 26.25 9.35005 30 13.05C28.25 14.9501 26.5 17.15 24.8 19.55C21.9 19.8 19.15 20.2501 16.55 20.8001C16.25 19.6501 16.05 18.5501 15.85 17.5001ZM3.50001 32.0001C3.50001 29.6501 6.35001 27.1501 11.35 25.3001C12.35 24.9001 13.45 24.5501 14.55 24.2501C15.35 26.7501 16.35 29.4001 17.55 32.0501C16.35 34.7001 15.3 37.3001 14.55 39.8001C7.65001 37.8001 3.50001 34.8001 3.50001 32.0001ZM17.75 56.6501C15.7 55.4501 15 51.7501 15.85 46.5001C16 45.4501 16.25 44.3501 16.55 43.2001C19.15 43.8001 21.9 44.2001 24.8 44.4501C26.5 46.8501 28.25 49.0001 30 50.9501C26.3 54.6001 22.55 57.1001 19.5 57.1001C18.85 57.1001 18.25 56.9501 17.75 56.6501ZM48.15 46.5001C49 51.7501 48.3 55.4501 46.25 56.6501C45.75 56.9501 45.15 57.1001 44.5 57.1001C41.5 57.1001 37.75 54.6501 34 50.9501C35.75 49.0501 37.5 46.8501 39.2 44.4501C42.1 44.2001 44.85 43.7501 47.45 43.2001C47.75 44.3501 47.95 45.4501 48.15 46.5001ZM52.65 38.7001C51.65 39.1001 50.55 39.4501 49.45 39.7501C48.65 37.2501 47.65 34.6001 46.45 31.9501C47.65 29.3001 48.7 26.7001 49.45 24.2001C56.35 26.2001 60.5 29.2001 60.5 32.0001C60.5 34.3501 57.6 36.8501 52.65 38.7001Z" fill="#61DAFB"/>
</svg>
