<svg width="80" height="64" viewBox="0 0 80 64" fill="none" xmlns="http://www.w3.org/2000/svg">
<g clip-path="url(#clip0_11_564)">
<path fill-rule="evenodd" clip-rule="evenodd" d="M68.099 6.45871L66.4452 4.36481C66.0046 3.81217 65.1809 3.70778 64.6062 4.13147L62.997 5.3043C62.2946 4.73938 61.5155 4.26042 60.6663 3.88585L60.9664 1.78581C61.0686 1.09808 60.5641 0.459475 59.8489 0.367368L57.1351 0.0112215C56.4199 -0.0808854 55.7558 0.404211 55.66 1.09194L55.3854 3.01391C54.4595 3.09373 53.5528 3.29023 52.7035 3.59725L51.3689 1.90862C50.9347 1.35598 50.1109 1.25159 49.5362 1.66915L47.3588 3.25953C46.7841 3.67708 46.6755 4.4692 47.1097 5.0157L48.3294 6.56309C47.7483 7.2324 47.2502 7.98768 46.8607 8.79822L44.6768 8.50962C43.9617 8.41751 43.3039 8.89647 43.2018 9.5842L42.8314 12.1939C42.7293 12.8816 43.2337 13.5202 43.9489 13.6123L45.9476 13.8764C46.0306 14.7667 46.2349 15.6326 46.5542 16.4554L44.7982 17.7387C44.2235 18.1563 44.1149 18.9484 44.5491 19.501L46.203 21.5949C46.6372 22.1476 47.4609 22.252 48.0356 21.8344L49.6448 20.6616C50.3408 21.2204 51.1263 21.6993 51.9691 22.0739L51.669 24.1739C51.5732 24.8617 52.0713 25.5003 52.7865 25.5924L55.5004 25.9485C56.2155 26.0406 56.8796 25.5617 56.9754 24.8739L57.25 22.952C58.1823 22.8722 59.0826 22.6757 59.9383 22.3686L61.2729 24.0573C61.7071 24.6038 62.5308 24.7143 63.1055 24.2967L65.283 22.7064C65.8577 22.2888 65.9727 21.4967 65.5384 20.9441L64.3124 19.3967C64.8999 18.7273 65.398 17.9782 65.7875 17.1615L67.9713 17.4501C68.6865 17.5484 69.3506 17.0633 69.4464 16.3755L69.8168 13.7659C69.9125 13.0781 69.4145 12.4395 68.6993 12.3474L66.7006 12.0834C66.6176 11.193 66.4133 10.3211 66.094 9.50437L67.85 8.22102C68.4247 7.80347 68.5333 7.01135 68.099 6.45871ZM19.754 31.082V41.2137V41.2199H23.0234V37.118H23.3108C23.6045 37.118 23.8727 37.1979 24.109 37.3514C24.2814 37.468 24.473 37.7321 24.6965 38.1312L26.4333 41.2199H30.1114L28.5278 38.2909C28.4512 38.1435 28.2979 37.9286 28.0744 37.6584C27.8509 37.3882 27.6785 37.2101 27.5572 37.1242C27.3848 36.9952 27.1038 36.8785 26.7143 36.7496C27.1996 36.6452 27.5827 36.5101 27.8573 36.3505C28.2915 36.0987 28.6363 35.7671 28.8854 35.3557C29.1344 34.9504 29.2621 34.4592 29.2621 33.9004C29.2621 33.2557 29.0961 32.7092 28.7704 32.2548C28.4512 31.8065 28.0169 31.4995 27.4869 31.3337C26.9569 31.1618 26.1907 31.082 25.1818 31.082H19.754ZM65.2351 50.0748C65.2351 50.0748 62.4807 46.1103 62.4286 46.0361C62.3766 45.9619 20.9226 46.0524 18.7997 46.0361C16.6768 46.0198 12.8741 45.8381 12.5639 45.7147C11.5805 45.3278 10.7057 44.812 9.92667 44.1918C9.16041 43.5778 8.48992 42.8716 7.90884 42.1041C6.35076 40.0347 5.50787 37.5172 5.48871 35.0241C5.46956 32.5679 6.24859 30.1425 7.92799 28.2082C8.47077 27.5819 9.10932 27.0047 9.85005 26.4889C10.776 25.8441 11.836 25.2976 13.0237 24.8555C14.2497 24.395 15.6481 24.0327 17.2126 23.7687L18.809 23.4985L19.1155 21.9572C20.0925 17.0264 22.6275 13.3053 25.9672 10.8184C28.8535 8.66313 32.3463 7.40434 35.9414 7.07275C37.11 6.96222 38.2913 6.94994 39.4599 7.03591C39.8494 6.37274 40.373 5.79554 40.9924 5.34728L41.0115 5.335C41.4266 5.02798 41.8864 4.77622 42.378 4.59201C42.3589 4.23586 42.378 3.88585 42.4227 3.53585L42.4291 3.499C42.4547 3.29023 42.4994 3.08759 42.5505 2.88496C40.2261 2.46741 37.8507 2.36916 35.5072 2.58407C31.0437 2.99549 26.7079 4.5613 23.1065 7.24468C19.256 10.1123 16.2611 14.2448 14.8563 19.6116C13.6175 19.8879 12.4426 20.2318 11.3443 20.6432C9.74788 21.2388 8.33667 21.9634 7.10426 22.823C6.04426 23.5599 5.11835 24.395 4.33293 25.3038C1.90642 28.1038 0.782562 31.5609 0.808104 35.0364C0.833646 38.4751 1.98305 41.926 4.10943 44.7506C4.90763 45.8129 5.8463 46.7892 6.91908 47.6489C8.04932 48.5577 9.33282 49.3007 10.7823 49.8779C11.4228 50.1321 15.1274 50.1233 18.3579 50.1155C20.657 50.1972 64.5972 50.0748 65.2351 50.0748ZM24.3963 35.1961H23.0234V33.1267H24.4538C25.0477 33.1267 25.45 33.2127 25.6671 33.3908C25.8842 33.5627 25.9927 33.8206 25.9927 34.146C25.9927 34.3671 25.9289 34.5636 25.7884 34.7355C25.6543 34.9075 25.4755 35.0118 25.2584 35.0548C24.8306 35.1469 24.5432 35.1961 24.3963 35.1961ZM39.4535 31.082H30.7372V41.2076H39.6131V38.9172H34.0066V36.9215H39.0576V34.8583H34.0066V33.2434H39.4535V31.082ZM43.4764 37.6768L40.3858 37.861C40.4815 38.8803 40.8711 39.7216 41.5607 40.397C42.2503 41.0602 43.4955 41.3918 45.2835 41.3918C46.3052 41.3918 47.1481 41.2506 47.8185 40.9681C48.489 40.6856 49.0126 40.2681 49.383 39.7216C49.7597 39.1751 49.9449 38.5795 49.9449 37.9286C49.9449 37.3759 49.8044 36.8724 49.5235 36.4303C49.2489 35.982 48.7955 35.6075 48.1825 35.3066C47.5695 35.0057 46.5478 34.7048 45.1238 34.4101C44.5491 34.2934 44.1915 34.1645 44.0383 34.0355C43.885 33.9004 43.802 33.7592 43.802 33.5995C43.802 33.3785 43.8978 33.1881 44.0894 33.0346C44.2809 32.8811 44.5683 32.8013 44.945 32.8013C45.3984 32.8013 45.7624 32.9057 46.0242 33.1144C46.2796 33.3171 46.452 33.6548 46.535 34.1153L49.5937 33.9373C49.4596 32.8811 49.0382 32.1197 48.3358 31.6346C47.627 31.1495 46.6053 30.91 45.2579 30.91C44.1596 30.91 43.2976 31.039 42.6654 31.303C42.0332 31.567 41.5607 31.9355 41.2478 32.396C40.9349 32.8565 40.7753 33.3478 40.7753 33.8697C40.7753 34.6618 41.0818 35.3127 41.6948 35.8224C42.3078 36.332 43.3231 36.7435 44.7471 37.0505C45.6219 37.2408 46.1774 37.4312 46.4137 37.64C46.65 37.8487 46.7713 38.0821 46.7713 38.3461C46.7713 38.6224 46.6436 38.8681 46.3946 39.0768C46.1455 39.2856 45.7815 39.39 45.3218 39.39C44.7024 39.39 44.2235 39.1812 43.885 38.776C43.6807 38.5242 43.5402 38.1619 43.4764 37.6768ZM60.3214 31.082H50.4175V33.5873H53.7443V41.2137H57.001V33.5873H60.3214V31.082ZM74.2867 19.8142C73.9482 19.4642 73.6034 19.1388 73.2458 18.8256C72.8563 19.5317 72.3071 20.1458 71.6494 20.6309L71.6303 20.6432C71.2152 20.9502 70.7554 21.202 70.2637 21.3862C70.2829 21.6993 70.2701 22.0125 70.2382 22.3195C70.4426 22.5037 70.6405 22.6941 70.8384 22.8967C71.3493 23.4248 71.8346 24.0143 72.2752 24.6713C73.8141 26.9433 74.6059 30.0688 74.5676 33.182C74.5357 36.1478 73.7503 39.04 72.1539 41.0848C71.1258 42.405 69.7529 43.5041 68.0735 44.4068C67.2115 44.8673 66.2728 45.2726 65.2639 45.6348L62.4286 46.0361L65.2351 50.0748C67.106 49.5221 68.8525 49.1595 70.3787 48.3366C72.6073 47.1393 74.4654 45.6287 75.915 43.7804C78.1371 40.9435 79.2227 37.0873 79.2674 33.2127C79.3121 29.2644 78.2648 25.2301 76.2215 22.209C75.6148 21.3186 74.9699 20.5204 74.2867 19.8142ZM61.6496 13.686C62.0519 10.8553 59.9958 8.24558 57.052 7.85873C54.1083 7.47188 51.4008 9.45525 50.9922 12.286C50.5835 15.1168 52.646 17.7265 55.5898 18.1133C58.5335 18.5001 61.2474 16.5168 61.6496 13.686Z" fill="black"/>
</g>
<defs>
<clipPath id="clip0_11_564">
<rect width="78.3845" height="64" fill="white" transform="translate(0.807739)"/>
</clipPath>
</defs>
</svg>
