<svg width="20" height="20" viewBox="0 0 20 20" fill="none" xmlns="http://www.w3.org/2000/svg">
<path d="M10.0008 7.95834C10.765 7.17751 11.76 6.66667 12.9175 6.66667C14.1331 6.66667 15.2988 7.14956 16.1584 8.0091C17.0179 8.86864 17.5008 10.0344 17.5008 11.25V17.5H15.8341V11.25C15.8341 10.4765 15.5269 9.73459 14.9799 9.18761C14.4329 8.64063 13.691 8.33334 12.9175 8.33334C12.1439 8.33334 11.4021 8.64063 10.8551 9.18761C10.3081 9.73459 10.0008 10.4765 10.0008 11.25V17.5H8.33415V7.08334H10.0008V7.95834ZM4.16748 5.41667C3.83596 5.41667 3.51802 5.28498 3.2836 5.05056C3.04918 4.81613 2.91748 4.49819 2.91748 4.16667C2.91748 3.83515 3.04918 3.51721 3.2836 3.28279C3.51802 3.04837 3.83596 2.91667 4.16748 2.91667C4.499 2.91667 4.81694 3.04837 5.05136 3.28279C5.28578 3.51721 5.41748 3.83515 5.41748 4.16667C5.41748 4.49819 5.28578 4.81613 5.05136 5.05056C4.81694 5.28498 4.499 5.41667 4.16748 5.41667ZM3.33415 7.08334H5.00081V17.5H3.33415V7.08334Z" fill="#4F4F4F"/>
</svg>
