<svg width="86" height="64" viewBox="0 0 86 64" fill="none" xmlns="http://www.w3.org/2000/svg">
<g clip-path="url(#clip0_11_460)">
<path d="M73.7667 36.7667C70.7833 36.7836 68.2 37.5001 66.0333 38.5669C65.2333 36.9836 64.4333 35.6001 64.3002 34.5669C64.1502 33.3669 63.9668 32.6334 64.1502 31.2002C64.3333 29.7667 65.1667 27.7334 65.1667 27.5667C65.1498 27.4167 64.9832 26.6834 63.2667 26.6667C61.5502 26.6501 60.0667 27.0001 59.9 27.4501C59.7333 27.9001 59.4 28.9334 59.1833 30.0001C58.8833 31.5667 55.75 37.1167 53.9667 40.0334C53.3833 38.9001 52.8833 37.9001 52.7832 37.0999C52.6333 35.9001 52.4498 35.1666 52.6333 33.7334C52.8167 32.2999 53.65 30.2667 53.65 30.1001C53.6333 29.9501 53.4667 29.2167 51.7502 29.2001C50.0333 29.1834 48.5502 29.5334 48.3835 29.9834C48.2168 30.4334 48.0335 31.5001 47.6668 32.5334C47.3167 33.5667 43.15 42.8334 42.0667 45.2501C41.5167 46.4834 41.0335 47.4667 40.6833 48.1334C40.3333 48.8001 40.6667 48.1834 40.6333 48.2501C40.3333 48.8167 40.1667 49.1334 40.1667 49.1334V49.1502C39.9333 49.5669 39.6833 49.9667 39.5665 49.9667C39.4832 49.9667 39.3165 48.8501 39.5998 47.3169C40.2165 44.1001 41.7165 39.0836 41.7 38.9002C41.7 38.8169 41.9832 37.9334 40.7332 37.4836C39.5165 37.0336 39.0833 37.7836 38.9832 37.7836C38.8832 37.7836 38.7998 38.0502 38.7998 38.0502C38.7998 38.0502 40.1498 32.4004 36.2165 32.4004C33.7498 32.4004 30.3498 35.0837 28.6665 37.5337C27.5998 38.1171 25.3332 39.3502 22.9332 40.6671C22.0165 41.1671 21.0665 41.7004 20.1665 42.1837L19.9833 41.9834C15.2167 36.9001 6.4 33.3001 6.76667 26.4667C6.9 23.9834 7.76667 17.4334 23.7002 9.50006C36.7502 3.00006 47.2002 4.78339 49.0167 8.75006C51.6 14.4167 43.4333 24.9501 29.8668 26.4667C24.7002 27.0501 21.9833 25.0501 21.3002 24.3001C20.5835 23.5167 20.4835 23.4834 20.2168 23.6334C19.7835 23.8667 20.0502 24.5667 20.2168 24.9834C20.6168 26.0334 22.2835 27.9001 25.1168 28.8334C27.6 29.6501 33.6668 30.1001 41.0002 27.2667C49.2168 24.0834 55.6335 15.2501 53.7502 7.86673C51.8335 0.35006 39.3668 -2.11661 27.5835 2.06673C20.5667 4.56673 12.9667 8.46673 7.5 13.5834C1 19.6501 -0.0333328 24.9501 0.400001 27.1501C1.91683 35.0001 12.7333 40.1167 17.0667 43.9001C16.85 44.0166 16.65 44.1332 16.4667 44.2334C14.3 45.2999 6.05 49.6167 3.98333 54.1832C1.65 59.3499 4.35 63.0667 6.15 63.5667C11.7167 65.1167 17.4167 62.3334 20.5 57.7501C23.5665 53.1667 23.2 47.2167 21.7833 44.5001L21.7332 44.4001L23.4332 43.4001C24.5333 42.7501 25.6167 42.1501 26.5665 41.6332C26.0333 43.0832 25.6498 44.7999 25.45 47.2999C25.2167 50.2334 26.4167 54.0332 28 55.5332C28.7 56.1831 29.5333 56.1999 30.05 56.1999C31.8833 56.1999 32.7167 54.6831 33.6333 52.8666C34.7667 50.6499 35.7667 48.0832 35.7667 48.0832C35.7667 48.0832 34.5167 55.0332 37.9333 55.0332C39.1833 55.0332 40.4333 53.4166 41 52.5832V52.5999C41 52.5999 41.0333 52.5499 41.1 52.4332C41.1699 52.3298 41.2366 52.2243 41.3 52.1167V52.0834C41.8 51.2167 42.9167 49.2334 44.5833 45.9501C46.7332 41.7167 48.8 36.4167 48.8 36.4167C48.8 36.4167 49 37.7167 49.6167 39.8501C49.9832 41.1169 50.7832 42.5001 51.3998 43.8501C50.8998 44.5501 50.5998 44.9502 50.5998 44.9502L50.6165 44.9669C50.2167 45.5002 49.7665 46.0671 49.3 46.6336C47.6 48.6669 45.5667 50.9837 45.3 51.6504C44.9833 52.4336 45.05 53.0169 45.6667 53.4837C46.1167 53.8171 46.9167 53.8836 47.7667 53.8171C49.3 53.7169 50.3667 53.3337 50.9 53.1002C51.7333 52.8002 52.6833 52.3502 53.6 51.6836C55.2667 50.4504 56.2833 48.7004 56.1833 46.3671C56.1333 45.0837 55.7167 43.8171 55.2 42.6171C55.35 42.4004 55.5002 42.1836 55.65 41.9504C58.2833 38.1002 60.3167 33.8671 60.3167 33.8671C60.3167 33.8671 60.5167 35.1671 61.1333 37.3004C61.4498 38.3837 62.0833 39.5672 62.65 40.7339C60.1833 42.7506 58.6333 45.0839 58.1 46.6172C57.1167 49.4506 57.8833 50.7339 59.3333 51.0339C59.9832 51.1672 60.9167 50.8672 61.6165 50.5672C62.4832 50.2839 63.5332 49.8004 64.5 49.0839C66.1667 47.8506 67.7667 46.1339 67.6833 43.8172C67.6333 42.7506 67.35 41.7006 66.9667 40.7006C69.0667 39.8339 71.7832 39.3339 75.2333 39.7506C82.65 40.6172 84.1167 45.2506 83.8335 47.1839C83.5502 49.1174 82.0002 50.1839 81.4833 50.5172C80.9667 50.8339 80.8 50.9507 80.85 51.1839C80.9167 51.5341 81.15 51.5172 81.6 51.4507C82.2167 51.3506 85.5 49.8674 85.6333 46.3009C85.8333 41.7169 81.4833 36.7169 73.7667 36.7667ZM16.5667 56.0501C14.1167 58.7334 10.6667 59.7501 9.2 58.8834C7.61667 57.9667 8.23317 54.0167 11.25 51.1667C13.0833 49.4334 15.4667 47.8334 17.0333 46.8501C17.3833 46.6334 17.9167 46.3169 18.55 45.9334C18.65 45.8669 18.7167 45.8334 18.7167 45.8334C18.8333 45.7667 18.9667 45.6834 19.1 45.6001C20.2167 49.6667 19.15 53.2334 16.5667 56.0501ZM34.4833 43.8667C33.6333 45.9501 31.8333 51.3001 30.75 51.0001C29.8165 50.7501 29.25 46.7001 30.5665 42.7001C31.2332 40.6832 32.6498 38.2834 33.4832 37.3499C34.8333 35.8499 36.2998 35.3499 36.6667 35.9666C37.1 36.7667 35.0167 42.5667 34.4833 43.8667ZM49.2667 50.9334C48.9 51.1169 48.5667 51.2501 48.4167 51.1502C48.3 51.0836 48.5665 50.8336 48.5665 50.8336C48.5665 50.8336 50.4165 48.8502 51.1498 47.9336C51.5665 47.4004 52.0665 46.7837 52.5998 46.0836V46.2836C52.6 48.6834 50.3 50.2834 49.2667 50.9334ZM60.6665 48.3334C60.3998 48.1334 60.4333 47.5167 61.3332 45.5834C61.6833 44.8167 62.4832 43.5334 63.8665 42.3167C64.0332 42.8167 64.1333 43.2999 64.1165 43.7501C64.1 46.7501 61.9667 47.8667 60.6665 48.3334Z" fill="#CF649A"/>
</g>
<defs>
<clipPath id="clip0_11_460">
<rect width="85.3333" height="64" fill="white" transform="translate(0.333344)"/>
</clipPath>
</defs>
</svg>
