<svg width="64" height="64" viewBox="0 0 64 64" fill="none" xmlns="http://www.w3.org/2000/svg">
<g clip-path="url(#clip0_11_458)">
<path d="M0 32V64H64V0H0V32ZM38.8347 52.336C39.1227 52.1733 40.1973 51.552 41.2133 50.9627L43.0533 49.896L43.44 50.4667C43.9787 51.288 45.1547 52.416 45.8667 52.792C47.9093 53.8693 50.712 53.7173 52.0933 52.4773C52.356 52.2567 52.567 51.9812 52.7117 51.6702C52.8564 51.3592 52.9311 51.0203 52.9307 50.6773L52.928 50.552V50.5573C52.928 49.816 52.8347 49.4907 52.448 48.9307C51.952 48.2213 50.936 47.624 48.0507 46.3707C44.7493 44.9493 43.328 44.0667 42.0267 42.664C41.2267 41.7546 40.6327 40.683 40.2853 39.5227L40.2693 39.464C40.0267 38.56 39.9653 36.2933 40.1573 35.3813C40.8373 32.1893 43.2453 29.968 46.72 29.3067C47.848 29.0933 50.4693 29.1733 51.576 29.448C53.2027 29.8533 54.44 30.5787 55.5787 31.7573C56.168 32.3867 57.0427 33.5333 57.112 33.8107C57.1333 33.8907 54.3493 35.7573 52.664 36.8053C52.6027 36.8453 52.3573 36.5813 52.0853 36.176C51.2587 34.976 50.3973 34.4587 49.0773 34.368C47.136 34.2347 45.888 35.2507 45.8987 36.9467L45.896 37.0453C45.896 37.448 45.9973 37.8267 46.176 38.1573L46.1707 38.144C46.5973 39.0267 47.392 39.5573 49.8773 40.632C54.4613 42.6053 56.4213 43.904 57.64 45.752C59 47.8133 59.3067 51.1067 58.3813 53.5547C57.368 56.216 54.848 58.024 51.3013 58.6213C50.2053 58.816 47.6053 58.7867 46.4267 58.5733C43.856 58.1147 41.4187 56.8453 39.9147 55.1787C39.3253 54.5307 38.176 52.832 38.248 52.712C38.4328 52.5707 38.6291 52.4449 38.8347 52.336ZM14.0213 32.1733C14.0213 30.7493 14.0507 29.56 14.0907 29.5333C14.1227 29.4907 19.192 29.4693 25.336 29.48L36.5227 29.512L36.552 32.1227L36.5733 34.744H28.24V58.4133H22.3467V34.744H14.0213V32.1733Z" fill="#1677C7"/>
</g>
<defs>
<clipPath id="clip0_11_458">
<rect width="64" height="64" fill="white"/>
</clipPath>
</defs>
</svg>
