<svg width="64" height="64" viewBox="0 0 64 64" fill="none" xmlns="http://www.w3.org/2000/svg">
<path d="M48.1101 44.0362H56.055V24.9598L47.1038 16.0086L41.4858 21.6267L48.1101 28.251V44.0362ZM56.076 48.0191H44.5044H28.3629L21.7386 41.3948L24.5477 38.5858L30.019 44.0571H41.2761L30.1867 32.9467L33.0167 30.1167L44.1061 41.2062V29.949L38.6558 24.4987L41.4438 21.7106L27.6711 7.875H14.0871H0L7.92401 15.799V15.82H7.96594H24.359L30.1657 21.6267L21.6757 30.1167L15.869 24.31V19.8029H7.92401V27.6012L21.6757 41.3529L16.0786 46.95L25.0298 55.9012H38.6138H64L56.076 48.0191Z" fill="#231F20"/>
</svg>
